<mxfile host="app.diagrams.net" modified="2023-09-26T06:11:14.726Z" agent="Mozilla/5.0 (Windows NT 10.0; Win64; x64) AppleWebKit/537.36 (KHTML, like Gecko) Chrome/117.0.0.0 Safari/537.36" version="21.8.2" etag="42fcp_aF-hlfa1qQOvVo" type="github">
  <diagram name="Страница — 1" id="I4N7pgU7RO43nDqoOKjK">
    <mxGraphModel>
      <root>
        <mxCell id="0" />
        <mxCell id="1" parent="0" />
      </root>
    </mxGraphModel>
  </diagram>
</mxfile>
